<svg width="1600" height="1491" viewBox="0 0 1600 1491" fill="none" xmlns="http://www.w3.org/2000/svg">
<path d="M435.61 -358.569C420.829 -349.564 406.588 -340.444 392.996 -331.337C388.268 -333.716 383.472 -335.937 378.614 -338.006C362.842 -327.978 347.788 -317.878 333.599 -307.88C327.978 -311.146 322.253 -314.17 316.429 -316.962C310.494 -319.808 304.457 -322.411 298.327 -324.782C291.417 -327.454 284.388 -329.83 277.25 -331.923C269.701 -334.137 262.03 -336.034 254.252 -337.629C246.053 -339.31 237.734 -340.656 229.31 -341.685C221.062 -342.691 212.713 -343.394 204.278 -343.808C194.469 -344.289 184.544 -344.381 174.525 -344.109C164.123 -343.827 153.619 -343.153 143.039 -342.115C132.154 -341.048 121.189 -339.596 110.171 -337.792C133.837 -344.579 157.534 -350.079 180.997 -353.989C203.977 -360.521 226.98 -365.834 249.764 -369.649C272.212 -376.02 294.682 -381.215 316.946 -384.973C337.63 -390.821 358.331 -395.656 378.869 -399.269C398.319 -404.64 417.775 -409.1 437.085 -412.473C456.34 -417.814 475.603 -422.257 494.726 -425.628C513.127 -430.702 531.532 -434.952 549.813 -438.228C566.646 -442.825 583.48 -446.73 600.216 -449.826C615.64 -453.957 631.06 -457.5 646.399 -460.367C660.245 -464.053 674.085 -467.261 687.866 -469.928C680.151 -467.922 672.432 -465.766 664.72 -463.471C656.457 -461.013 648.201 -458.395 639.964 -455.631C630.369 -452.411 620.799 -448.994 611.273 -445.4C600.841 -441.464 590.462 -437.317 580.161 -432.988C569.146 -428.358 558.22 -423.52 547.412 -418.507C536.276 -413.342 525.265 -407.992 514.412 -402.494C501.416 -395.911 488.647 -389.117 476.159 -382.178C462.268 -374.459 448.726 -366.559 435.61 -358.569Z" fill="#D9D9D9" fill-opacity="0.6"/>
<path d="M352.958 -303.209C565.914 -460.24 1014.31 -662.308 1104.25 -214.331C1216.67 345.64 -504.258 917.184 84.1812 1010.01C672.62 1102.83 2042.19 695.522 1459.31 1347.41M315.212 -294.628C528.168 -451.659 976.566 -653.727 1066.5 -205.75C1178.93 354.221 -542.004 925.765 46.4352 1018.59C634.874 1111.41 2004.45 704.103 1421.57 1355.99M269.351 -284.201C482.795 -441.343 932.16 -643.631 1022.07 -195.649C1134.47 364.329 -590.085 936.697 -0.535732 1029.27C589.014 1121.84 1961.45 713.879 1377.14 1366.09M222.169 -273.475C435.612 -430.616 884.977 -632.904 974.892 -184.922C1087.29 375.056 -637.268 947.424 -47.7182 1039.99C541.831 1132.56 1914.26 724.606 1329.95 1376.82M168.696 -261.317C382.139 -418.459 831.504 -620.747 921.419 -172.765C1033.81 387.213 -690.741 959.581 -101.192 1052.15C488.358 1144.72 1860.79 736.763 1276.48 1388.97M112.077 -248.445C325.52 -405.587 774.885 -607.874 864.8 -159.892C977.194 400.085 -747.36 972.453 -157.811 1065.02C431.739 1157.59 1804.17 749.635 1219.86 1401.85M51.8108 -234.744C266.228 -392.107 717.528 -594.834 807.397 -146.842C919.732 413.149 -812.068 987.165 -220.298 1079.23C371.473 1171.29 1749.63 762.035 1162.46 1414.9M-6.63148 -221.457C208.272 -378.93 660.54 -581.878 750.385 -133.88C862.692 426.117 -872.732 1000.96 -279.85 1092.77C313.031 1184.58 1694.05 774.671 1105.45 1427.86M-75.0117 -205.911C141.352 -363.716 596.523 -567.324 686.298 -119.31C798.517 440.707 -947.775 1018.02 -351.562 1109.07C244.651 1200.13 1634.26 788.265 1041.36 1442.43M-144.714 -190.064C72.6232 -348.091 529.73 -552.138 619.458 -104.114C731.619 455.917 -1021.92 1034.87 -423.486 1125.42C174.948 1215.97 1570.28 802.811 974.52 1457.63M-213.915 -174.331C3.42226 -332.358 460.529 -536.406 550.257 -88.381C662.418 471.65 -1091.12 1050.61 -492.687 1141.16C105.748 1231.71 1501.08 818.544 905.319 1473.36M-286.261 -157.883C-68.9242 -315.91 388.182 -519.958 477.911 -71.9331C590.072 488.098 -1163.47 1067.06 -565.033 1157.6C33.4011 1248.15 1428.73 834.992 832.972 1489.81" stroke="white" stroke-width="3"/>
</svg>
