<svg width="18" height="18" viewBox="0 0 18 18" fill="none" xmlns="http://www.w3.org/2000/svg">
<g id="bi:instagram" clip-path="url(#clip0_30_78)">
<path id="Vector" d="M9.21593 0.39624C6.95056 0.39624 6.66569 0.406933 5.77561 0.447567C4.88553 0.490339 4.27927 0.633626 3.74814 0.845349C3.19077 1.05956 2.68604 1.39647 2.26955 1.83232C1.84423 2.25912 1.51546 2.77635 1.30642 3.34753C1.09981 3.89074 0.958946 4.51307 0.918251 5.42198C0.878599 6.33624 0.868164 6.62709 0.868164 8.95177C0.868164 11.2743 0.878599 11.5652 0.918251 12.4773C0.95999 13.3883 1.09981 14.0096 1.30642 14.5539C1.52033 15.1163 1.8052 15.5932 2.26955 16.0691C2.73285 16.5449 3.19824 16.8379 3.7471 17.056C4.27927 17.2678 4.88448 17.4121 5.77352 17.4538C6.66465 17.4945 6.94847 17.5052 9.21593 17.5052C11.4834 17.5052 11.7662 17.4945 12.6573 17.4538C13.5453 17.4111 14.1536 17.2678 14.6848 17.056C15.2418 16.8417 15.7461 16.5048 16.1623 16.0691C16.6267 15.5932 16.9115 15.1163 17.1254 14.5539C17.331 14.0096 17.4719 13.3883 17.5136 12.4773C17.5533 11.5652 17.5637 11.2743 17.5637 8.9507C17.5637 6.62709 17.5533 6.33624 17.5136 5.42305C17.4719 4.51307 17.331 3.89074 17.1254 3.34753C16.9164 2.77635 16.5876 2.25912 16.1623 1.83232C15.7458 1.39647 15.2411 1.05956 14.6837 0.845349C14.1516 0.633626 13.5443 0.48927 12.6563 0.447567C11.7651 0.406933 11.4824 0.39624 9.21385 0.39624H9.21593ZM8.46776 1.93818H9.21698C11.4458 1.93818 11.7098 1.94567 12.5895 1.98737C13.4034 2.02479 13.8458 2.16487 14.1401 2.28143C14.5293 2.43648 14.8079 2.62254 15.1001 2.92194C15.3922 3.22135 15.5728 3.50578 15.7241 3.90571C15.8388 4.20618 15.9745 4.65957 16.011 5.49363C16.0517 6.39505 16.0601 6.66559 16.0601 8.94856C16.0601 11.2315 16.0517 11.5031 16.011 12.4046C15.9745 13.2386 15.8378 13.6909 15.7241 13.9925C15.5893 14.3634 15.3758 14.6991 15.099 14.9752C14.8069 15.2746 14.5293 15.4596 14.139 15.6146C13.8469 15.7322 13.4044 15.8713 12.5895 15.9097C11.7098 15.9504 11.4458 15.96 9.21698 15.96C6.98812 15.96 6.72308 15.9504 5.84343 15.9097C5.02953 15.8713 4.58814 15.7322 4.29388 15.6146C3.93162 15.477 3.60373 15.2585 3.33389 14.9752C3.05661 14.6989 2.84275 14.3628 2.7078 13.9914C2.59407 13.6909 2.45737 13.2375 2.42085 12.4035C2.3812 11.5021 2.37285 11.2315 2.37285 8.94642C2.37285 6.66131 2.3812 6.39291 2.42085 5.49149C2.45841 4.65743 2.59407 4.20404 2.70885 3.9025C2.86015 3.50365 3.04171 3.21814 3.33389 2.91874C3.62606 2.61933 3.90362 2.43434 4.29388 2.27929C4.58814 2.16167 5.02953 2.02266 5.84343 1.98416C6.61352 1.9478 6.91195 1.93711 8.46776 1.93604V1.93818ZM13.6726 3.35822C13.541 3.35822 13.4108 3.38477 13.2893 3.43636C13.1677 3.48795 13.0573 3.56356 12.9643 3.65889C12.8712 3.75421 12.7975 3.86737 12.7471 3.99192C12.6968 4.11646 12.6709 4.24995 12.6709 4.38476C12.6709 4.51956 12.6968 4.65305 12.7471 4.77759C12.7975 4.90214 12.8712 5.0153 12.9643 5.11062C13.0573 5.20595 13.1677 5.28156 13.2893 5.33315C13.4108 5.38474 13.541 5.41129 13.6726 5.41129C13.9383 5.41129 14.1931 5.30314 14.3809 5.11062C14.5688 4.91811 14.6743 4.65701 14.6743 4.38476C14.6743 4.1125 14.5688 3.8514 14.3809 3.65889C14.1931 3.46637 13.9383 3.35822 13.6726 3.35822ZM9.21698 4.55798C8.64836 4.54889 8.08366 4.65581 7.55575 4.87251C7.02784 5.08921 6.54727 5.41137 6.14202 5.82022C5.73678 6.22907 5.41495 6.71645 5.19527 7.25398C4.9756 7.79152 4.86247 8.36846 4.86247 8.95123C4.86247 9.534 4.9756 10.1109 5.19527 10.6485C5.41495 11.186 5.73678 11.6734 6.14202 12.0822C6.54727 12.4911 7.02784 12.8132 7.55575 13.03C8.08366 13.2467 8.64836 13.3536 9.21698 13.3445C10.3424 13.3265 11.4158 12.8557 12.2055 12.0338C12.9951 11.2118 13.4377 10.1047 13.4377 8.95123C13.4377 7.7978 12.9951 6.69062 12.2055 5.86869C11.4158 5.04675 10.3424 4.57598 9.21698 4.55798ZM9.21698 6.09885C9.58244 6.09885 9.94432 6.17262 10.282 6.31594C10.6196 6.45926 10.9264 6.66932 11.1848 6.93414C11.4432 7.19896 11.6482 7.51334 11.7881 7.85934C11.9279 8.20535 11.9999 8.57619 11.9999 8.9507C11.9999 9.3252 11.9279 9.69605 11.7881 10.042C11.6482 10.3881 11.4432 10.7024 11.1848 10.9673C10.9264 11.2321 10.6196 11.4421 10.282 11.5855C9.94432 11.7288 9.58244 11.8025 9.21698 11.8025C8.4789 11.8025 7.77104 11.5021 7.24914 10.9673C6.72724 10.4324 6.43404 9.70705 6.43404 8.9507C6.43404 8.19434 6.72724 7.46896 7.24914 6.93414C7.77104 6.39932 8.4789 6.09885 9.21698 6.09885Z" fill="#F8F8F8"/>
</g>
<defs>
<clipPath id="clip0_30_78">
<rect width="16.6955" height="17.1089" fill="white" transform="translate(0.868164 0.39624)"/>
</clipPath>
</defs>
</svg>
