<svg width="390" height="876" viewBox="0 0 390 876" fill="none" xmlns="http://www.w3.org/2000/svg">
<path d="M11.5881 -159.395C69.6248 -235.028 199.395 -322.088 254.179 -65.2677C322.661 255.757 -187.398 475.36 3.97472 562.115C195.347 648.87 604.066 500.8 458.288 832.504M0.167971 -156.799C58.2047 -232.431 187.974 -319.491 242.759 -62.6714C311.24 258.354 -198.818 477.956 -7.4454 564.711C183.927 651.467 592.646 503.396 446.868 835.1M-13.7072 -153.644C44.4768 -229.31 174.539 -316.437 229.317 -59.6153C297.789 261.412 -213.365 481.263 -21.6566 567.942C170.052 654.621 579.637 506.354 433.425 838.156M-27.9823 -150.399C30.2017 -226.065 160.264 -313.192 215.042 -56.3699C283.514 264.657 -227.64 484.509 -35.9317 571.188C155.777 657.867 565.362 509.599 419.15 841.401M-44.1608 -146.721C14.0232 -222.387 144.086 -309.513 198.864 -52.6917C267.336 268.335 -243.819 488.187 -52.1102 574.866C139.598 661.545 549.183 513.277 402.972 845.08M-61.291 -142.826C-3.10698 -218.492 126.955 -305.619 181.733 -48.7971C250.206 272.23 -260.949 492.081 -69.2404 578.76C122.468 665.439 532.053 517.172 385.842 848.974M-79.5245 -138.681C-21.046 -214.414 109.602 -301.673 164.366 -44.8486C232.82 276.182 -280.526 496.532 -88.1459 583.059C104.235 669.585 515.552 520.924 368.474 852.923M-97.2064 -134.661C-38.5806 -210.427 92.3602 -297.754 147.117 -40.9271C215.563 280.106 -298.88 500.705 -106.164 587.155C86.5527 673.605 498.736 524.747 351.225 856.844M-117.895 -129.957C-58.8273 -205.824 72.9918 -293.35 127.727 -36.5189C196.147 284.52 -321.585 505.867 -127.86 592.088C65.8641 678.308 480.645 528.86 331.836 861.252M-138.984 -125.163C-79.6214 -201.097 52.7833 -288.756 107.505 -31.9213C175.906 289.122 -344.017 510.967 -149.621 597.035C44.7756 683.103 461.289 533.26 311.613 865.85M-159.92 -120.403C-100.558 -196.337 31.8464 -283.996 86.5678 -27.1613C154.97 293.882 -364.954 515.727 -170.558 601.795C23.8387 687.863 440.352 538.02 290.676 870.61M-181.809 -115.426C-122.447 -191.36 9.95789 -279.019 64.6793 -22.1849C133.081 298.858 -386.843 520.703 -192.446 606.771C1.95013 692.839 418.463 542.997 268.788 875.586" stroke="white" stroke-width="0.5"/>
</svg>
