<svg width="26" height="27" viewBox="0 0 26 27" fill="none" xmlns="http://www.w3.org/2000/svg">
<path d="M13.216 5.06958C14.1081 5.06958 15.0233 5.0931 15.9102 5.1316L16.9578 5.18293L17.9606 5.24388L18.8997 5.3091L19.7575 5.37754C20.6883 5.45055 21.5642 5.8576 22.2311 6.52709C22.8979 7.19657 23.313 8.0856 23.4034 9.03778L23.4451 9.49223L23.5234 10.4653C23.5964 11.4737 23.6507 12.5729 23.6507 13.624C23.6507 14.6752 23.5964 15.7744 23.5234 16.7828L23.4451 17.7558C23.4315 17.912 23.418 18.0627 23.4034 18.2103C23.313 19.1626 22.8977 20.0518 22.2307 20.7213C21.5636 21.3908 20.6875 21.7978 19.7564 21.8705L18.9008 21.9379L17.9617 22.0042L16.9578 22.0651L15.9102 22.1165C15.0126 22.1564 14.1144 22.1771 13.216 22.1785C12.3176 22.1771 11.4193 22.1564 10.5217 22.1165L9.47407 22.0651L8.4713 22.0042L7.53217 21.9379L6.67444 21.8705C5.74361 21.7975 4.86772 21.3905 4.20086 20.721C3.534 20.0515 3.11889 19.1625 3.02855 18.2103L2.98681 17.7558L2.90855 16.7828C2.82877 15.7318 2.7863 14.6782 2.78125 13.624C2.78125 12.5729 2.83551 11.4737 2.90855 10.4653L2.98681 9.49223C3.00038 9.33611 3.01394 9.18534 3.02855 9.03778C3.11886 8.08577 3.53382 7.19688 4.20047 6.52741C4.86711 5.85795 5.74276 5.45079 6.6734 5.37754L7.53009 5.3091L8.46921 5.24388L9.47303 5.18293L10.5207 5.1316C11.4186 5.09164 12.3172 5.07097 13.216 5.06958ZM13.216 7.20819C12.3551 7.20819 11.4692 7.23172 10.6073 7.26808L9.58677 7.31833L8.60695 7.37714L7.68661 7.4413L6.84348 7.50867C6.40035 7.54089 5.98267 7.73285 5.66446 8.05052C5.34625 8.36819 5.14808 8.79105 5.10506 9.24415C4.98297 10.5369 4.86819 12.1463 4.86819 13.624C4.86819 15.1018 4.98297 16.7111 5.10506 18.0039C5.19376 18.9364 5.91584 19.6613 6.84348 19.7394L7.68661 19.8057L8.60695 19.8699L9.58677 19.9297L10.6073 19.98C11.4692 20.0164 12.3551 20.0399 13.216 20.0399C14.0768 20.0399 14.9627 20.0164 15.8246 19.98L16.8452 19.9297L17.825 19.8709L18.7453 19.8068L19.5884 19.7394C20.0316 19.7072 20.4493 19.5152 20.7675 19.1976C21.0857 18.8799 21.2838 18.457 21.3269 18.0039C21.4489 16.7111 21.5637 15.1018 21.5637 13.624C21.5637 12.1463 21.4489 10.5369 21.3269 9.24415C21.2838 8.79105 21.0857 8.36819 20.7675 8.05052C20.4493 7.73285 20.0316 7.54089 19.5884 7.50867L18.7453 7.44237L17.825 7.37821L16.8452 7.31833L15.8246 7.26808C14.9556 7.22976 14.0858 7.20979 13.216 7.20819ZM11.129 11.031C11.129 10.9265 11.1538 10.8235 11.2014 10.7311C11.249 10.6387 11.3179 10.5595 11.4022 10.5006C11.4864 10.4417 11.5834 10.4048 11.6847 10.393C11.7861 10.3813 11.8887 10.3951 11.9836 10.4332L12.0681 10.476L16.4507 13.068C16.538 13.1196 16.6118 13.192 16.6659 13.2791C16.7201 13.3662 16.7529 13.4654 16.7616 13.5683C16.7703 13.6711 16.7546 13.7746 16.7159 13.87C16.6773 13.9653 16.6167 14.0497 16.5394 14.1159L16.4507 14.1801L12.0681 16.7731C11.9798 16.8256 11.8803 16.855 11.7784 16.859C11.6764 16.863 11.575 16.8414 11.483 16.7961C11.3911 16.7508 11.3113 16.6831 11.2507 16.599C11.1901 16.5148 11.1505 16.4168 11.1353 16.3133L11.129 16.2171V11.031Z" fill="#F8F8F8"/>
</svg>
